# xmcd
#
# Track frame offsets:
#	150
#	17077
#	34675
#	57582
#	90960
#
# Disc length: 1720 seconds
# Revision: 0
# Processed by: cddbd v1.5.2PL0 Copyright (c) Steve Scherf et al.
# Submitted via: dBpowerAMP V12.0
#
DISCID=3306b605
DTITLE=M People - Excited
DYEAR=1994
DGENRE=House
TTITLE0=Excited [Radio Edit]
TTITLE1=Excited [MK 7" Edit]
TTITLE2=Excited [M People Master Mix]
TTITLE3=Excited [Judge Jules Remix]
TTITLE4=Excited [MK Mix]
EXTD=
EXTT0=
EXTT1=
EXTT2=
EXTT3=
EXTT4=
PLAYORDER=
